<?xml version="1.0" encoding="UTF-8"?>
<svg version="1.1" xmlns="http://www.w3.org/2000/svg" width="280" height="280">
<path d="M0 0 C92.4 0 184.8 0 280 0 C280 92.4 280 184.8 280 280 C187.6 280 95.2 280 0 280 C0 187.6 0 95.2 0 0 Z " fill="#004AAD" transform="translate(0,0)"/>
<path d="M0 0 C3.98449396 2.96735521 6.84902187 6.0470656 8.4375 10.8125 C9.90758929 30.9696858 0.16789247 47.89584205 -12.5625 62.8125 C-12.99433594 63.32796387 -13.42617187 63.84342773 -13.87109375 64.37451172 C-26.23136601 79.01336532 -44.92265739 94.33272189 -64.5625 96.8125 C-73.36461164 97.36797306 -79.43096078 97.38064751 -86.3125 91.4375 C-91.48805179 85.39935624 -91.31191566 78.42615659 -90.80517578 70.82324219 C-89.6613131 61.34552282 -84.86155792 52.58528875 -79.5625 44.8125 C-78.68464844 43.50732422 -78.68464844 43.50732422 -77.7890625 42.17578125 C-64.1828828 22.71061397 -43.91819982 3.95887356 -20.1796875 -1.76171875 C-13.40059257 -2.86458643 -6.08421578 -3.64824217 0 0 Z " fill="#FCFDFE" transform="translate(128.5625,40.1875)"/>
<path d="M0 0 C7.3902866 3.80538515 13.68439745 8.57705998 20.0625 13.875 C20.8359375 14.50664062 21.609375 15.13828125 22.40625 15.7890625 C37.54217629 28.53816964 52.54579365 48.69288383 54.3359375 68.97265625 C54.53149866 75.04257381 54.28673931 79.67461402 51.0625 84.875 C45.67808251 90.35912892 41.95437887 92.14399175 34.25 92.25 C14.56730227 92.29756273 -1.95822691 79.63036956 -15.9375 66.875 C-16.66324219 66.23175781 -17.38898438 65.58851563 -18.13671875 64.92578125 C-28.8636658 54.89510662 -36.51907069 42.41335473 -41.9375 28.875 C-42.47697266 27.53501953 -42.47697266 27.53501953 -43.02734375 26.16796875 C-45.5221184 19.05153784 -46.69415652 10.61196695 -44.0234375 3.41015625 C-34.03432063 -13.89357201 -14.41319901 -6.75169787 0 0 Z " fill="#FCFDFE" transform="translate(82.9375,150.125)"/>
<path d="M0 0 C26.71111523 9.20605941 48.57022649 30.32631765 61.234375 55.24609375 C61.56083008 55.88772461 61.88728516 56.52935547 62.22363281 57.19042969 C66.72797249 66.48212931 68.82421173 77.24558409 65.609375 87.30859375 C63.50561629 92.08174441 60.08956636 94.76758521 55.375 96.9765625 C44.17223768 100.7715811 32.22990445 96.13072181 22.125 91.14453125 C13.39344326 86.42949061 5.99960492 80.59716004 -1.265625 73.87109375 C-1.78930664 73.39124023 -2.31298828 72.91138672 -2.85253906 72.41699219 C-16.88875804 59.42371208 -30.69576001 41.23693632 -32.578125 21.61328125 C-32.82709399 14.78219461 -32.55017283 10.28315416 -28.265625 4.87109375 C-20.45458145 -2.74068849 -10.18509227 -3.05599965 0 0 Z " fill="#FDFDFE" transform="translate(175.265625,39.12890625)"/>
<path d="M0 0 C4.27205781 3.25942188 7.22295968 7.58769866 7.953125 12.9140625 C8.34245259 31.12085293 -0.73187888 47.71613985 -12.41796875 61.20703125 C-12.83530273 61.69526367 -13.25263672 62.18349609 -13.68261719 62.68652344 C-23.46902645 74.04759841 -33.94570818 82.60320592 -47.16796875 89.70703125 C-47.94793213 90.12879639 -48.72789551 90.55056152 -49.53149414 90.98510742 C-59.07881928 95.90972981 -68.70389276 97.2850119 -79.41796875 96.20703125 C-82.16448506 95.21109823 -83.23527868 94.2748429 -85.41796875 92.20703125 C-86.16046875 91.58828125 -86.90296875 90.96953125 -87.66796875 90.33203125 C-92.42248805 84.55868638 -92.08167214 77.32057015 -91.41796875 70.20703125 C-88.47952923 55.25446557 -80.41582834 42.42876676 -70.41796875 31.20703125 C-69.7321875 30.37816406 -69.04640625 29.54929688 -68.33984375 28.6953125 C-54.55366112 12.432723 -22.22161122 -13.23940205 0 0 Z " fill="#FDFDFE" transform="translate(234.41796875,145.79296875)"/>
<path d="M0 0 C4.37359239 1.50282029 5.53465686 4.28279557 7.625 8.25 C17.7653071 26.60264512 29.1924817 37.46497364 47.98486328 47.0090332 C52.8565776 49.55986429 52.8565776 49.55986429 53.69189453 52.12329102 C53.79356934 52.74260498 53.89524414 53.36191895 54 54 C53.49251221 54.28085449 52.98502441 54.56170898 52.4621582 54.85107422 C28.94907657 67.94488337 15.66227833 81.20866285 3 105 C1.68 105 0.36 105 -1 105 C-2.32104492 103.44628906 -2.32104492 103.44628906 -3.48046875 101.265625 C-4.13607788 100.07126831 -4.13607788 100.07126831 -4.80493164 98.8527832 C-5.2611792 97.99386475 -5.71742676 97.13494629 -6.1875 96.25 C-16.03919484 78.54786431 -27.72488365 65.31255194 -46.625 56.875 C-47.73875 56.25625 -48.8525 55.6375 -50 55 C-50.7109375 52.3828125 -50.7109375 52.3828125 -51 50 C-49.85144531 49.39414063 -48.70289062 48.78828125 -47.51953125 48.1640625 C-26.86136923 37.10292908 -14.79690319 25.24351976 -3.59375 4.765625 C-2 2 -2 2 0 0 Z " fill="#FCFDFE" transform="translate(139,88)"/>
</svg>
